<svg xmlns="http://www.w3.org/2000/svg" xmlns:xlink="http://www.w3.org/1999/xlink" width="100" zoomAndPan="magnify" viewBox="0 0 75 74.999997" height="100" preserveAspectRatio="xMidYMid meet" version="1.0"><defs><g/></defs><path stroke-linecap="butt" transform="matrix(0.296775, 0, 0, 0.296775, 1.434784, 47.895607)" fill="none" stroke-linejoin="miter" d="M -0.00401029 4.998067 L 84.432456 4.998067 " stroke="#ffa132" stroke-width="10" stroke-opacity="1" stroke-miterlimit="4"/><path stroke-linecap="butt" transform="matrix(0, 0.296775, -0.296775, 0, 4.401007, 25.501519)" fill="none" stroke-linejoin="miter" d="M -0.00511674 4.997189 L 82.456997 4.997189 " stroke="#03798e" stroke-width="10" stroke-opacity="1" stroke-miterlimit="4"/><path stroke-linecap="butt" transform="matrix(-0.296027, 0, 0, -0.296027, 72.468137, 23.208403)" fill="none" stroke-linejoin="miter" d="M -0.00207014 5.005758 L 84.436445 5.005758 " stroke="#ffa132" stroke-width="10" stroke-opacity="1" stroke-miterlimit="4"/><path stroke-linecap="butt" transform="matrix(0, -0.296027, 0.296027, 0, 69.509381, 45.546096)" fill="none" stroke-linejoin="miter" d="M -0.00263124 4.995825 L 82.469742 4.995825 " stroke="#03798e" stroke-width="10" stroke-opacity="1" stroke-miterlimit="4"/><g fill="#03798e" fill-opacity="1"><g transform="translate(9.058188, 43.647742)"><g><path d="M 2.558594 -7.574219 L 2.558594 -13.222656 C 2.558594 -13.289062 2.492188 -13.375 2.375 -13.375 L 0.183594 -13.375 C 0.0820312 -13.375 0 -13.289062 0 -13.222656 L 0 -7.574219 Z M 9.996094 -13.375 L 7.808594 -13.375 C 7.707031 -13.375 7.625 -13.289062 7.625 -13.222656 L 7.625 -5 L 2.558594 -5 L 2.558594 -5.015625 L 0 -5.015625 L 0 -0.152344 C 0 -0.0820312 0.0820312 0 0.183594 0 L 2.375 0 C 2.492188 0 2.558594 -0.0820312 2.558594 -0.152344 L 2.558594 -2.507812 L 7.625 -2.507812 L 7.625 -0.152344 C 7.625 -0.0820312 7.707031 0 7.808594 0 L 9.996094 0 C 10.113281 0 10.179688 -0.0820312 10.179688 -0.152344 L 10.179688 -13.222656 C 10.179688 -13.289062 10.113281 -13.375 9.996094 -13.375 Z M 9.996094 -13.375 "/></g></g></g><g fill="#03798e" fill-opacity="1"><g transform="translate(21.594767, 43.647742)"><g><path d="M 9.863281 -13.375 L 7.691406 -13.375 C 7.574219 -13.375 7.507812 -13.289062 7.507812 -13.222656 L 7.507812 -4.464844 C 7.507812 -3.109375 6.269531 -2.457031 5.015625 -2.457031 C 3.777344 -2.457031 2.675781 -3.160156 2.523438 -4.480469 L 2.523438 -10.949219 L 0 -10.949219 L 0 -4.464844 C 0 -1.707031 2.257812 0 5.015625 0 C 7.855469 0 10.03125 -1.636719 10.03125 -4.464844 L 10.03125 -13.222656 C 10.03125 -13.289062 9.945312 -13.375 9.863281 -13.375 Z M 9.863281 -13.375 "/></g></g></g><g fill="#03798e" fill-opacity="1"><g transform="translate(33.964197, 43.647742)"><g><path d="M 2.375 -13.375 L 0.183594 -13.375 C 0.0820312 -13.375 0 -13.289062 0 -13.222656 L 0 -7.972656 L 2.558594 -7.972656 L 2.558594 -10.933594 C 5.464844 -11.082031 7.625 -9.863281 7.625 -6.6875 C 7.625 -2.558594 4.179688 -2.390625 2.558594 -2.457031 L 2.558594 -5.398438 L 0 -5.398438 L 0 -0.152344 C 0 -0.0820312 0.0820312 0 0.183594 0 L 2.375 0 C 5.699219 0 10.199219 -0.96875 10.199219 -6.6875 C 10.199219 -12.621094 5.632812 -13.375 2.375 -13.375 Z M 2.375 -13.375 "/></g></g></g><g fill="#03798e" fill-opacity="1"><g transform="translate(46.517491, 43.647742)"><g><path d="M 7.222656 -2.492188 L 0 -2.492188 L 0 -0.152344 C 0 -0.0820312 0.0820312 0 0.183594 0 L 7.222656 0 C 7.339844 0 7.40625 -0.0820312 7.40625 -0.152344 L 7.40625 -2.324219 C 7.40625 -2.40625 7.339844 -2.492188 7.222656 -2.492188 Z M 2.558594 -5.046875 L 2.558594 -13.222656 C 2.558594 -13.289062 2.492188 -13.375 2.390625 -13.375 L 0.183594 -13.375 C 0.0820312 -13.375 0 -13.289062 0 -13.222656 L 0 -5.046875 Z M 2.558594 -5.046875 "/></g></g></g><g fill="#03798e" fill-opacity="1"><g transform="translate(56.145655, 43.647742)"><g><path d="M 6.351562 -2.492188 L 2.558594 -2.492188 L 2.558594 -5.5 L 7.808594 -5.5 C 7.90625 -5.5 7.992188 -5.582031 7.992188 -5.652344 L 7.992188 -7.773438 C 7.992188 -7.855469 7.90625 -7.925781 7.808594 -7.925781 L 2.558594 -7.925781 L 2.558594 -10.949219 L 6.351562 -10.949219 L 6.351562 -13.375 L 0.183594 -13.375 C 0.0820312 -13.375 0 -13.289062 0 -13.222656 L 0 -0.152344 C 0 -0.0820312 0.0820312 0 0.183594 0 L 6.351562 0 Z M 6.351562 -2.492188 "/></g></g></g></svg>