<svg xmlns="http://www.w3.org/2000/svg" xmlns:xlink="http://www.w3.org/1999/xlink" width="120" zoomAndPan="magnify" viewBox="0 0 90 89.999999" height="120" preserveAspectRatio="xMidYMid meet" version="1.0"><defs><g/></defs><g fill="#03798e" fill-opacity="1"><g transform="translate(24.709427, 49.96256)"><g><path d="M 1.929688 -5.707031 L 1.929688 -9.96875 C 1.929688 -10.019531 1.878906 -10.082031 1.789062 -10.082031 L 0.136719 -10.082031 C 0.0625 -10.082031 0 -10.019531 0 -9.96875 L 0 -5.707031 Z M 7.535156 -10.082031 L 5.886719 -10.082031 C 5.808594 -10.082031 5.746094 -10.019531 5.746094 -9.96875 L 5.746094 -3.769531 L 1.929688 -3.769531 L 1.929688 -3.78125 L 0 -3.78125 L 0 -0.113281 C 0 -0.0625 0.0625 0 0.136719 0 L 1.789062 0 C 1.878906 0 1.929688 -0.0625 1.929688 -0.113281 L 1.929688 -1.890625 L 5.746094 -1.890625 L 5.746094 -0.113281 C 5.746094 -0.0625 5.808594 0 5.886719 0 L 7.535156 0 C 7.625 0 7.675781 -0.0625 7.675781 -0.113281 L 7.675781 -9.96875 C 7.675781 -10.019531 7.625 -10.082031 7.535156 -10.082031 Z M 7.535156 -10.082031 "/></g></g></g><g fill="#03798e" fill-opacity="1"><g transform="translate(34.159658, 49.96256)"><g><path d="M 7.433594 -10.082031 L 5.796875 -10.082031 C 5.707031 -10.082031 5.660156 -10.019531 5.660156 -9.96875 L 5.660156 -3.363281 C 5.660156 -2.34375 4.726562 -1.851562 3.78125 -1.851562 C 2.847656 -1.851562 2.015625 -2.382812 1.902344 -3.378906 L 1.902344 -8.253906 L 0 -8.253906 L 0 -3.363281 C 0 -1.285156 1.703125 0 3.78125 0 C 5.921875 0 7.5625 -1.234375 7.5625 -3.363281 L 7.5625 -9.96875 C 7.5625 -10.019531 7.5 -10.082031 7.433594 -10.082031 Z M 7.433594 -10.082031 "/></g></g></g><g fill="#03798e" fill-opacity="1"><g transform="translate(43.48389, 49.96256)"><g><path d="M 1.789062 -10.082031 L 0.136719 -10.082031 C 0.0625 -10.082031 0 -10.019531 0 -9.96875 L 0 -6.011719 L 1.929688 -6.011719 L 1.929688 -8.242188 C 4.121094 -8.355469 5.746094 -7.433594 5.746094 -5.039062 C 5.746094 -1.929688 3.152344 -1.800781 1.929688 -1.851562 L 1.929688 -4.070312 L 0 -4.070312 L 0 -0.113281 C 0 -0.0625 0.0625 0 0.136719 0 L 1.789062 0 C 4.296875 0 7.6875 -0.730469 7.6875 -5.039062 C 7.6875 -9.515625 4.246094 -10.082031 1.789062 -10.082031 Z M 1.789062 -10.082031 "/></g></g></g><g fill="#03798e" fill-opacity="1"><g transform="translate(52.946722, 49.96256)"><g><path d="M 5.445312 -1.878906 L 0 -1.878906 L 0 -0.113281 C 0 -0.0625 0.0625 0 0.136719 0 L 5.445312 0 C 5.53125 0 5.582031 -0.0625 5.582031 -0.113281 L 5.582031 -1.75 C 5.582031 -1.816406 5.53125 -1.878906 5.445312 -1.878906 Z M 1.929688 -3.804688 L 1.929688 -9.96875 C 1.929688 -10.019531 1.878906 -10.082031 1.800781 -10.082031 L 0.136719 -10.082031 C 0.0625 -10.082031 0 -10.019531 0 -9.96875 L 0 -3.804688 Z M 1.929688 -3.804688 "/></g></g></g><g fill="#03798e" fill-opacity="1"><g transform="translate(60.204553, 49.96256)"><g><path d="M 4.789062 -1.878906 L 1.929688 -1.878906 L 1.929688 -4.144531 L 5.886719 -4.144531 C 5.960938 -4.144531 6.023438 -4.210938 6.023438 -4.257812 L 6.023438 -5.859375 C 6.023438 -5.921875 5.960938 -5.972656 5.886719 -5.972656 L 1.929688 -5.972656 L 1.929688 -8.253906 L 4.789062 -8.253906 L 4.789062 -10.082031 L 0.136719 -10.082031 C 0.0625 -10.082031 0 -10.019531 0 -9.96875 L 0 -0.113281 C 0 -0.0625 0.0625 0 0.136719 0 L 4.789062 0 Z M 4.789062 -1.878906 "/></g></g></g><path stroke-linecap="butt" transform="matrix(-0.18, 0, 0, -0.18, 74.987977, 34.081597)" fill="none" stroke-linejoin="miter" d="M -0.00168838 5.010608 L 84.43842 5.010608 " stroke="#ffa132" stroke-width="10" stroke-opacity="1" stroke-miterlimit="4"/><path stroke-linecap="butt" transform="matrix(0, -0.18, 0.18, 0, 73.188901, 47.664081)" fill="none" stroke-linejoin="miter" d="M 0.000103247 5.005235 L 82.465385 5.005235 " stroke="#03798e" stroke-width="10" stroke-opacity="1" stroke-miterlimit="4"/><path stroke-linecap="butt" transform="matrix(0.18, 0, 0, 0.18, 15.001554, 55.909993)" fill="none" stroke-linejoin="miter" d="M -0.00863438 4.992224 L 84.431474 4.992224 " stroke="#ffa132" stroke-width="10" stroke-opacity="1" stroke-miterlimit="4"/><path stroke-linecap="butt" transform="matrix(0, 0.18, -0.18, 0, 16.800631, 42.327509)" fill="none" stroke-linejoin="miter" d="M 0.00342463 4.990487 L 82.468707 4.990487 " stroke="#03798e" stroke-width="10" stroke-opacity="1" stroke-miterlimit="4"/></svg>