<svg xmlns="http://www.w3.org/2000/svg" xmlns:xlink="http://www.w3.org/1999/xlink" width="80" zoomAndPan="magnify" viewBox="0 0 60 60" height="80" preserveAspectRatio="xMidYMid meet" version="1.0"><defs><g/></defs><g fill="#03798e" fill-opacity="1"><g transform="translate(12.746295, 34.500001)"><g><path d="M 1.589844 -4.707031 L 1.589844 -8.222656 C 1.589844 -8.265625 1.550781 -8.316406 1.476562 -8.316406 L 0.113281 -8.316406 C 0.0507812 -8.316406 0 -8.265625 0 -8.222656 L 0 -4.707031 Z M 6.214844 -8.316406 L 4.855469 -8.316406 C 4.792969 -8.316406 4.738281 -8.265625 4.738281 -8.222656 L 4.738281 -3.109375 L 1.589844 -3.109375 L 1.589844 -3.117188 L 0 -3.117188 L 0 -0.09375 C 0 -0.0507812 0.0507812 0 0.113281 0 L 1.476562 0 C 1.550781 0 1.589844 -0.0507812 1.589844 -0.09375 L 1.589844 -1.558594 L 4.738281 -1.558594 L 4.738281 -0.09375 C 4.738281 -0.0507812 4.792969 0 4.855469 0 L 6.214844 0 C 6.289062 0 6.332031 -0.0507812 6.332031 -0.09375 L 6.332031 -8.222656 C 6.332031 -8.265625 6.289062 -8.316406 6.214844 -8.316406 Z M 6.214844 -8.316406 "/></g></g></g><g fill="#03798e" fill-opacity="1"><g transform="translate(20.542905, 34.500001)"><g><path d="M 6.132812 -8.316406 L 4.78125 -8.316406 C 4.707031 -8.316406 4.667969 -8.265625 4.667969 -8.222656 L 4.667969 -2.777344 C 4.667969 -1.933594 3.898438 -1.527344 3.117188 -1.527344 C 2.347656 -1.527344 1.664062 -1.964844 1.570312 -2.785156 L 1.570312 -6.808594 L 0 -6.808594 L 0 -2.777344 C 0 -1.058594 1.402344 0 3.117188 0 C 4.886719 0 6.238281 -1.019531 6.238281 -2.777344 L 6.238281 -8.222656 C 6.238281 -8.265625 6.183594 -8.316406 6.132812 -8.316406 Z M 6.132812 -8.316406 "/></g></g></g><g fill="#03798e" fill-opacity="1"><g transform="translate(28.235568, 34.500001)"><g><path d="M 1.476562 -8.316406 L 0.113281 -8.316406 C 0.0507812 -8.316406 0 -8.265625 0 -8.222656 L 0 -4.957031 L 1.589844 -4.957031 L 1.589844 -6.796875 C 3.398438 -6.890625 4.738281 -6.132812 4.738281 -4.15625 C 4.738281 -1.589844 2.597656 -1.488281 1.589844 -1.527344 L 1.589844 -3.359375 L 0 -3.359375 L 0 -0.09375 C 0 -0.0507812 0.0507812 0 0.113281 0 L 1.476562 0 C 3.542969 0 6.339844 -0.601562 6.339844 -4.15625 C 6.339844 -7.847656 3.503906 -8.316406 1.476562 -8.316406 Z M 1.476562 -8.316406 "/></g></g></g><g fill="#03798e" fill-opacity="1"><g transform="translate(36.042569, 34.500001)"><g><path d="M 4.492188 -1.550781 L 0 -1.550781 L 0 -0.09375 C 0 -0.0507812 0.0507812 0 0.113281 0 L 4.492188 0 C 4.5625 0 4.605469 -0.0507812 4.605469 -0.09375 L 4.605469 -1.445312 C 4.605469 -1.496094 4.5625 -1.550781 4.492188 -1.550781 Z M 1.589844 -3.140625 L 1.589844 -8.222656 C 1.589844 -8.265625 1.550781 -8.316406 1.488281 -8.316406 L 0.113281 -8.316406 C 0.0507812 -8.316406 0 -8.265625 0 -8.222656 L 0 -3.140625 Z M 1.589844 -3.140625 "/></g></g></g><g fill="#03798e" fill-opacity="1"><g transform="translate(42.030543, 34.500001)"><g><path d="M 3.949219 -1.550781 L 1.589844 -1.550781 L 1.589844 -3.421875 L 4.855469 -3.421875 C 4.917969 -3.421875 4.96875 -3.472656 4.96875 -3.511719 L 4.96875 -4.832031 C 4.96875 -4.886719 4.917969 -4.925781 4.855469 -4.925781 L 1.589844 -4.925781 L 1.589844 -6.808594 L 3.949219 -6.808594 L 3.949219 -8.316406 L 0.113281 -8.316406 C 0.0507812 -8.316406 0 -8.265625 0 -8.222656 L 0 -0.09375 C 0 -0.0507812 0.0507812 0 0.113281 0 L 3.949219 0 Z M 3.949219 -1.550781 "/></g></g></g><path stroke-linecap="butt" transform="matrix(-0.22369, 0, 0, -0.22369, 53.992044, 19.193939)" fill="none" stroke-linejoin="miter" d="M -0.00064084 5.005673 L 84.431852 5.005673 " stroke="#ffa132" stroke-width="10" stroke-opacity="1" stroke-miterlimit="4"/><path stroke-linecap="butt" transform="matrix(0, -0.22369, 0.22369, 0, 51.756293, 36.07321)" fill="none" stroke-linejoin="miter" d="M -0.0045113 5.001145 L 82.454688 5.001145 " stroke="#03798e" stroke-width="10" stroke-opacity="1" stroke-miterlimit="4"/><path stroke-linecap="butt" transform="matrix(0.221856, 0, 0, 0.221856, 6, 43.261711)" fill="none" stroke-linejoin="miter" d="M 0.00000112686 5.000468 L 84.42636 5.000468 " stroke="#ffa132" stroke-width="10" stroke-opacity="1" stroke-miterlimit="4"/><path stroke-linecap="butt" transform="matrix(0, 0.221856, -0.221856, 0, 8.217419, 26.520871)" fill="none" stroke-linejoin="miter" d="M -0.00603728 4.994434 L 82.465926 4.994434 " stroke="#03798e" stroke-width="10" stroke-opacity="1" stroke-miterlimit="4"/></svg>