<svg xmlns="http://www.w3.org/2000/svg" xmlns:xlink="http://www.w3.org/1999/xlink" width="500" zoomAndPan="magnify" viewBox="0 0 375 374.999991" height="500" preserveAspectRatio="xMidYMid meet" version="1.0"><defs><g/></defs><rect x="-37.5" width="450" fill="#d9d9d8" y="-37.499999" height="449.999989" fill-opacity="1"/><rect x="-37.5" width="450" fill="#1e161e" y="-37.499999" height="449.999989" fill-opacity="1"/><g fill="#03798e" fill-opacity="1"><g transform="translate(102.955941, 208.177326)"><g><path d="M 8.035156 -23.785156 L 8.035156 -41.535156 C 8.035156 -41.742188 7.824219 -42.007812 7.457031 -42.007812 L 0.578125 -42.007812 C 0.261719 -42.007812 0 -41.742188 0 -41.535156 L 0 -23.785156 Z M 31.398438 -42.007812 L 24.519531 -42.007812 C 24.207031 -42.007812 23.945312 -41.742188 23.945312 -41.535156 L 23.945312 -15.699219 L 8.035156 -15.699219 L 8.035156 -15.753906 L 0 -15.753906 L 0 -0.472656 C 0 -0.261719 0.261719 0 0.578125 0 L 7.457031 0 C 7.824219 0 8.035156 -0.261719 8.035156 -0.472656 L 8.035156 -7.875 L 23.945312 -7.875 L 23.945312 -0.472656 C 23.945312 -0.261719 24.207031 0 24.519531 0 L 31.398438 0 C 31.765625 0 31.976562 -0.261719 31.976562 -0.472656 L 31.976562 -41.535156 C 31.976562 -41.742188 31.765625 -42.007812 31.398438 -42.007812 Z M 31.398438 -42.007812 "/></g></g></g><g fill="#03798e" fill-opacity="1"><g transform="translate(142.331905, 208.177326)"><g><path d="M 30.980469 -42.007812 L 24.152344 -42.007812 C 23.785156 -42.007812 23.574219 -41.742188 23.574219 -41.535156 L 23.574219 -14.019531 C 23.574219 -9.765625 19.691406 -7.71875 15.753906 -7.71875 C 11.867188 -7.71875 8.402344 -9.925781 7.929688 -14.070312 L 7.929688 -34.390625 L 0 -34.390625 L 0 -14.019531 C 0 -5.355469 7.089844 0 15.753906 0 C 24.679688 0 31.503906 -5.144531 31.503906 -14.019531 L 31.503906 -41.535156 C 31.503906 -41.742188 31.242188 -42.007812 30.980469 -42.007812 Z M 30.980469 -42.007812 "/></g></g></g><g fill="#03798e" fill-opacity="1"><g transform="translate(181.182872, 208.177326)"><g><path d="M 7.457031 -42.007812 L 0.578125 -42.007812 C 0.261719 -42.007812 0 -41.742188 0 -41.535156 L 0 -25.046875 L 8.035156 -25.046875 L 8.035156 -34.339844 C 17.171875 -34.8125 23.945312 -30.980469 23.945312 -21.003906 C 23.945312 -8.035156 13.125 -7.507812 8.035156 -7.71875 L 8.035156 -16.960938 L 0 -16.960938 L 0 -0.472656 C 0 -0.261719 0.261719 0 0.578125 0 L 7.457031 0 C 17.90625 0 32.03125 -3.046875 32.03125 -21.003906 C 32.03125 -39.644531 17.695312 -42.007812 7.457031 -42.007812 Z M 7.457031 -42.007812 "/></g></g></g><g fill="#03798e" fill-opacity="1"><g transform="translate(220.611336, 208.177326)"><g><path d="M 22.683594 -7.824219 L 0 -7.824219 L 0 -0.472656 C 0 -0.261719 0.261719 0 0.578125 0 L 22.683594 0 C 23.050781 0 23.261719 -0.261719 23.261719 -0.472656 L 23.261719 -7.296875 C 23.261719 -7.5625 23.050781 -7.824219 22.683594 -7.824219 Z M 8.035156 -15.855469 L 8.035156 -41.535156 C 8.035156 -41.742188 7.824219 -42.007812 7.507812 -42.007812 L 0.578125 -42.007812 C 0.261719 -42.007812 0 -41.742188 0 -41.535156 L 0 -15.855469 Z M 8.035156 -15.855469 "/></g></g></g><g fill="#03798e" fill-opacity="1"><g transform="translate(250.852301, 208.177326)"><g><path d="M 19.953125 -7.824219 L 8.035156 -7.824219 L 8.035156 -17.273438 L 24.519531 -17.273438 C 24.835938 -17.273438 25.097656 -17.539062 25.097656 -17.746094 L 25.097656 -24.414062 C 25.097656 -24.679688 24.835938 -24.886719 24.519531 -24.886719 L 8.035156 -24.886719 L 8.035156 -34.390625 L 19.953125 -34.390625 L 19.953125 -42.007812 L 0.578125 -42.007812 C 0.261719 -42.007812 0 -41.742188 0 -41.535156 L 0 -0.472656 C 0 -0.261719 0.261719 0 0.578125 0 L 19.953125 0 Z M 19.953125 -7.824219 "/></g></g></g><path stroke-linecap="butt" transform="matrix(-0.75, 0, 0, -0.75, 312.485082, 142.033995)" fill="none" stroke-linejoin="miter" d="M 0.000942107 4.998452 L 84.433239 4.998452 " stroke="#ffa132" stroke-width="10" stroke-opacity="1" stroke-miterlimit="4"/><path stroke-linecap="butt" transform="matrix(0, -0.75, 0.75, 0, 304.98892, 198.627673)" fill="none" stroke-linejoin="miter" d="M -0.00164386 4.999149 L 82.461903 4.999149 " stroke="#03798e" stroke-width="10" stroke-opacity="1" stroke-miterlimit="4"/><path stroke-linecap="butt" transform="matrix(0.75, 0, 0, 0.75, 62.506479, 232.958306)" fill="none" stroke-linejoin="miter" d="M 0.00177827 4.998301 L 84.434075 4.998301 " stroke="#ffa132" stroke-width="10" stroke-opacity="1" stroke-miterlimit="4"/><path stroke-linecap="butt" transform="matrix(0, 0.75, -0.75, 0, 70.002634, 176.364612)" fill="none" stroke-linejoin="miter" d="M -0.00177489 4.998303 L 82.461772 4.998303 " stroke="#03798e" stroke-width="10" stroke-opacity="1" stroke-miterlimit="4"/></svg>