<svg xmlns="http://www.w3.org/2000/svg" xmlns:xlink="http://www.w3.org/1999/xlink" width="130" zoomAndPan="magnify" viewBox="0 0 97.5 30.000001" height="40" preserveAspectRatio="xMidYMid meet" version="1.0"><defs><g/></defs><g fill="#1e161e" fill-opacity="1"><g transform="translate(39.811994, 25.040324)"><g><path d="M 4.9375 0 C 7.40625 0 9.878906 -1.617188 9.878906 -4.769531 L 9.878906 -12.261719 C 9.878906 -15.390625 7.40625 -17.03125 4.9375 -17.03125 C 2.46875 -17.03125 0 -15.390625 0 -12.261719 L 0 -4.769531 C 0 -1.617188 2.46875 0 4.9375 0 Z M 4.9375 -14.242188 C 5.8125 -14.242188 6.726562 -13.644531 6.726562 -12.433594 L 6.726562 -4.660156 C 6.726562 -3.449219 5.832031 -2.832031 4.9375 -2.832031 C 4.066406 -2.832031 3.171875 -3.449219 3.171875 -4.660156 L 3.171875 -12.433594 C 3.171875 -13.644531 4.042969 -14.242188 4.9375 -14.242188 Z M 4.9375 -14.242188 "/></g></g></g><g fill="#1e161e" fill-opacity="1"><g transform="translate(50.199822, 25.040324)"><g><path d="M 6.640625 -16.839844 C 6.640625 -16.925781 6.578125 -17.03125 6.429688 -17.03125 L 3.980469 -17.03125 L 0.128906 -14.945312 C 0 -14.878906 -0.0195312 -14.796875 0.0195312 -14.6875 L 0.957031 -12.707031 C 1 -12.601562 1.128906 -12.558594 1.234375 -12.582031 C 1.9375 -12.835938 2.660156 -13.132812 3.40625 -13.390625 L 3.40625 -0.191406 C 3.40625 -0.105469 3.46875 0 3.617188 0 L 6.429688 0 C 6.578125 0 6.640625 -0.105469 6.640625 -0.191406 Z M 6.640625 -16.839844 "/></g></g></g></svg>