<svg xmlns="http://www.w3.org/2000/svg" xmlns:xlink="http://www.w3.org/1999/xlink" width="130" zoomAndPan="magnify" viewBox="0 0 97.5 30.000001" height="40" preserveAspectRatio="xMidYMid meet" version="1.0"><defs><g/><clipPath id="ab5c9e39c5"><path d="M 1.332031 0 L 95.683594 0 L 95.683594 29.03125 L 1.332031 29.03125 Z M 1.332031 0 " clip-rule="nonzero"/></clipPath></defs><g clip-path="url(#ab5c9e39c5)"><path fill="#ffffff" d="M 1.332031 0 L 95.683594 0 L 95.683594 29.03125 L 1.332031 29.03125 Z M 1.332031 0 " fill-opacity="1" fill-rule="nonzero"/><path fill="#ffffff" d="M 1.332031 0 L 95.683594 0 L 95.683594 29.03125 L 1.332031 29.03125 Z M 1.332031 0 " fill-opacity="1" fill-rule="nonzero"/></g><g fill="#1e161e" fill-opacity="1"><g transform="translate(38.0315, 25.040324)"><g><path d="M 4.9375 0 C 7.40625 0 9.878906 -1.617188 9.878906 -4.769531 L 9.878906 -12.261719 C 9.878906 -15.390625 7.40625 -17.03125 4.9375 -17.03125 C 2.46875 -17.03125 0 -15.390625 0 -12.261719 L 0 -4.769531 C 0 -1.617188 2.46875 0 4.9375 0 Z M 4.9375 -14.242188 C 5.8125 -14.242188 6.726562 -13.644531 6.726562 -12.433594 L 6.726562 -4.660156 C 6.726562 -3.449219 5.832031 -2.832031 4.9375 -2.832031 C 4.066406 -2.832031 3.171875 -3.449219 3.171875 -4.660156 L 3.171875 -12.433594 C 3.171875 -13.644531 4.042969 -14.242188 4.9375 -14.242188 Z M 4.9375 -14.242188 "/></g></g></g><g fill="#1e161e" fill-opacity="1"><g transform="translate(48.419328, 25.040324)"><g><path d="M 10.070312 -2.9375 C 10.070312 -3.023438 9.960938 -3.128906 9.8125 -3.128906 L 3.960938 -3.128906 L 8.644531 -9.324219 C 9.496094 -10.429688 9.855469 -11.582031 9.855469 -12.582031 C 9.855469 -15.179688 7.515625 -17.03125 5.023438 -17.03125 C 1.683594 -17.03125 0.171875 -14.835938 0.171875 -12.113281 C 0.171875 -12.027344 0.253906 -11.941406 0.40625 -11.941406 L 2.980469 -11.941406 C 3.128906 -11.941406 3.214844 -12.027344 3.214844 -12.113281 C 3.214844 -13.367188 4.152344 -13.902344 5.023438 -13.902344 C 5.855469 -13.902344 6.515625 -13.285156 6.515625 -12.410156 C 6.515625 -11.964844 6.34375 -11.453125 5.9375 -10.898438 L 0 -2.726562 L 0 -0.191406 C 0 -0.105469 0.105469 0 0.234375 0 L 9.8125 0 C 9.960938 0 10.070312 -0.105469 10.070312 -0.191406 Z M 10.070312 -2.9375 "/></g></g></g></svg>