<svg xmlns="http://www.w3.org/2000/svg" xmlns:xlink="http://www.w3.org/1999/xlink" width="130" zoomAndPan="magnify" viewBox="0 0 97.5 30.000001" height="40" preserveAspectRatio="xMidYMid meet" version="1.0"><defs><g/></defs><g fill="#1e161e" fill-opacity="1"><g transform="translate(37.691278, 25.040324)"><g><path d="M 4.9375 0 C 7.40625 0 9.878906 -1.617188 9.878906 -4.769531 L 9.878906 -12.261719 C 9.878906 -15.390625 7.40625 -17.03125 4.9375 -17.03125 C 2.46875 -17.03125 0 -15.390625 0 -12.261719 L 0 -4.769531 C 0 -1.617188 2.46875 0 4.9375 0 Z M 4.9375 -14.242188 C 5.8125 -14.242188 6.726562 -13.644531 6.726562 -12.433594 L 6.726562 -4.660156 C 6.726562 -3.449219 5.832031 -2.832031 4.9375 -2.832031 C 4.066406 -2.832031 3.171875 -3.449219 3.171875 -4.660156 L 3.171875 -12.433594 C 3.171875 -13.644531 4.042969 -14.242188 4.9375 -14.242188 Z M 4.9375 -14.242188 "/></g></g></g><g fill="#1e161e" fill-opacity="1"><g transform="translate(48.079106, 25.040324)"><g><path d="M 2.617188 -8.324219 C 2.535156 -8.175781 2.640625 -8.027344 2.832031 -8.027344 L 5.085938 -8.027344 C 6.449219 -7.917969 7.34375 -6.875 7.34375 -5.429688 C 7.34375 -4.277344 6.597656 -3.085938 5.152344 -3.085938 C 4.152344 -3.085938 3.171875 -3.808594 3.171875 -4.960938 C 3.171875 -5.066406 3.066406 -5.152344 2.960938 -5.152344 L 0.234375 -5.152344 C 0.105469 -5.152344 0 -5.066406 0 -4.960938 C 0 -1.914062 2.40625 0 5.152344 0 C 7.917969 0 10.582031 -1.53125 10.582031 -5.238281 C 10.582031 -7.917969 9.324219 -9.855469 7.109375 -10.515625 L 10.644531 -16.730469 C 10.730469 -16.902344 10.621094 -17.03125 10.429688 -17.03125 L 0.789062 -17.03125 C 0.636719 -17.03125 0.554688 -16.945312 0.554688 -16.839844 L 0.554688 -14.199219 C 0.554688 -14.113281 0.636719 -14.007812 0.789062 -14.007812 L 5.9375 -14.007812 Z M 2.617188 -8.324219 "/></g></g></g></svg>