<svg xmlns="http://www.w3.org/2000/svg" xmlns:xlink="http://www.w3.org/1999/xlink" width="130" zoomAndPan="magnify" viewBox="0 0 97.5 30.000001" height="40" preserveAspectRatio="xMidYMid meet" version="1.0"><defs><g/></defs><g fill="#1e161e" fill-opacity="1"><g transform="translate(37.997478, 25.040324)"><g><path d="M 4.9375 0 C 7.40625 0 9.878906 -1.617188 9.878906 -4.769531 L 9.878906 -12.261719 C 9.878906 -15.390625 7.40625 -17.03125 4.9375 -17.03125 C 2.46875 -17.03125 0 -15.390625 0 -12.261719 L 0 -4.769531 C 0 -1.617188 2.46875 0 4.9375 0 Z M 4.9375 -14.242188 C 5.8125 -14.242188 6.726562 -13.644531 6.726562 -12.433594 L 6.726562 -4.660156 C 6.726562 -3.449219 5.832031 -2.832031 4.9375 -2.832031 C 4.066406 -2.832031 3.171875 -3.449219 3.171875 -4.660156 L 3.171875 -12.433594 C 3.171875 -13.644531 4.042969 -14.242188 4.9375 -14.242188 Z M 4.9375 -14.242188 "/></g></g></g><g fill="#1e161e" fill-opacity="1"><g transform="translate(48.385306, 25.040324)"><g><path d="M 10.113281 -16.839844 C 10.113281 -16.925781 10.027344 -17.03125 9.878906 -17.03125 L 7.109375 -17.03125 C 7.046875 -17.03125 6.960938 -16.988281 6.941406 -16.964844 L 0 -7.898438 L 0 -5.238281 C 0 -5.128906 0.105469 -5.046875 0.234375 -5.046875 L 6.875 -5.046875 L 6.875 -0.191406 C 6.875 -0.105469 6.984375 0 7.109375 0 L 9.878906 0 C 10.027344 0 10.113281 -0.105469 10.113281 -0.191406 Z M 6.917969 -12.476562 L 6.917969 -7.855469 L 3.234375 -7.855469 Z M 6.917969 -12.476562 "/></g></g></g></svg>