<svg xmlns="http://www.w3.org/2000/svg" xmlns:xlink="http://www.w3.org/1999/xlink" width="130" zoomAndPan="magnify" viewBox="0 0 97.5 30.000001" height="40" preserveAspectRatio="xMidYMid meet" version="1.0"><defs><g/></defs><g fill="#1e161e" fill-opacity="1"><g transform="translate(37.884071, 25.040324)"><g><path d="M 4.9375 0 C 7.40625 0 9.878906 -1.617188 9.878906 -4.769531 L 9.878906 -12.261719 C 9.878906 -15.390625 7.40625 -17.03125 4.9375 -17.03125 C 2.46875 -17.03125 0 -15.390625 0 -12.261719 L 0 -4.769531 C 0 -1.617188 2.46875 0 4.9375 0 Z M 4.9375 -14.242188 C 5.8125 -14.242188 6.726562 -13.644531 6.726562 -12.433594 L 6.726562 -4.660156 C 6.726562 -3.449219 5.832031 -2.832031 4.9375 -2.832031 C 4.066406 -2.832031 3.171875 -3.449219 3.171875 -4.660156 L 3.171875 -12.433594 C 3.171875 -13.644531 4.042969 -14.242188 4.9375 -14.242188 Z M 4.9375 -14.242188 "/></g></g></g><g fill="#1e161e" fill-opacity="1"><g transform="translate(48.271898, 25.040324)"><g><path d="M 0 -4.980469 C 0 -1.722656 2.234375 0 5.023438 0 C 7.8125 0 10.304688 -1.9375 10.304688 -5.195312 C 10.304688 -8.601562 8.683594 -10.835938 5.023438 -10.835938 L 3.34375 -10.835938 L 3.34375 -14.09375 L 9.195312 -14.09375 C 9.34375 -14.09375 9.453125 -14.179688 9.453125 -14.285156 L 9.453125 -16.839844 C 9.453125 -16.925781 9.34375 -17.03125 9.195312 -17.03125 L 0.363281 -17.03125 C 0.210938 -17.03125 0.128906 -16.925781 0.128906 -16.839844 L 0.128906 -8.21875 C 0.128906 -8.109375 0.210938 -8.027344 0.363281 -8.027344 L 5.023438 -8.027344 C 6.449219 -8.027344 7.109375 -6.8125 7.109375 -5.363281 C 7.109375 -4.214844 6.386719 -3.109375 5.023438 -3.109375 C 4.023438 -3.109375 3.191406 -3.703125 3.191406 -4.980469 C 3.191406 -5.085938 3.109375 -5.171875 2.960938 -5.171875 L 0.234375 -5.171875 C 0.105469 -5.171875 0 -5.085938 0 -4.980469 Z M 0 -4.980469 "/></g></g></g></svg>