<svg xmlns="http://www.w3.org/2000/svg" xmlns:xlink="http://www.w3.org/1999/xlink" width="130" zoomAndPan="magnify" viewBox="0 0 97.5 30.000001" height="40" preserveAspectRatio="xMidYMid meet" version="1.0"><defs><g/></defs><g fill="#1e161e" fill-opacity="1"><g transform="translate(38.065522, 25.040324)"><g><path d="M 4.9375 0 C 7.40625 0 9.878906 -1.617188 9.878906 -4.769531 L 9.878906 -12.261719 C 9.878906 -15.390625 7.40625 -17.03125 4.9375 -17.03125 C 2.46875 -17.03125 0 -15.390625 0 -12.261719 L 0 -4.769531 C 0 -1.617188 2.46875 0 4.9375 0 Z M 4.9375 -14.242188 C 5.8125 -14.242188 6.726562 -13.644531 6.726562 -12.433594 L 6.726562 -4.660156 C 6.726562 -3.449219 5.832031 -2.832031 4.9375 -2.832031 C 4.066406 -2.832031 3.171875 -3.449219 3.171875 -4.660156 L 3.171875 -12.433594 C 3.171875 -13.644531 4.042969 -14.242188 4.9375 -14.242188 Z M 4.9375 -14.242188 "/></g></g></g><g fill="#1e161e" fill-opacity="1"><g transform="translate(48.45335, 25.040324)"><g><path d="M 0 -5.046875 C 0 -2.300781 1.957031 0 4.9375 0 C 7.707031 0 9.984375 -2.234375 9.984375 -4.980469 C 9.984375 -7.515625 8.300781 -9.941406 5.554688 -9.941406 C 5.171875 -9.941406 4.894531 -9.941406 4.683594 -9.855469 L 7.109375 -16.773438 C 7.175781 -16.902344 7.066406 -17.03125 6.917969 -17.03125 L 4.003906 -17.03125 C 3.894531 -17.03125 3.832031 -16.988281 3.808594 -16.902344 L 0.234375 -6.769531 C 0.0429688 -6.195312 0 -5.621094 0 -5.046875 Z M 2.980469 -4.960938 C 2.980469 -6.089844 3.894531 -7.023438 4.960938 -7.023438 C 6.066406 -7.023438 6.984375 -6.089844 6.984375 -4.960938 C 6.984375 -3.832031 6.066406 -2.917969 4.960938 -2.917969 C 3.875 -2.917969 2.980469 -3.832031 2.980469 -4.960938 Z M 2.980469 -4.960938 "/></g></g></g></svg>